<svg xmlns="http://www.w3.org/2000/svg" xmlns:xlink="http://www.w3.org/1999/xlink" width="500" zoomAndPan="magnify" viewBox="0 0 375 374.999991" height="500" preserveAspectRatio="xMidYMid meet" version="1.0"><defs><g><g id="id1"/></g></defs><g fill="rgb(0%, 0%, 93.328857%)" fill-opacity="1"><g transform="translate(22.059371, 334.893145)"><g><path d="M 119.703125 -295.046875 L 211.171875 -295.046875 C 221.285156 -295.046875 227.609375 -290.410156 230.140625 -281.140625 L 324.140625 -12.21875 C 324.421875 -11.375 324.5625 -10.039062 324.5625 -8.21875 C 324.5625 -6.394531 323.644531 -4.566406 321.8125 -2.734375 C 319.988281 -0.910156 317.8125 0 315.28125 0 L 237.296875 0 C 228.867188 0 223.390625 -3.507812 220.859375 -10.53125 L 210.75 -38.359375 L 120.125 -38.359375 L 110.015625 -10.53125 C 107.484375 -3.507812 102.003906 0 93.578125 0 L 15.59375 0 C 13.0625 0 10.882812 -0.910156 9.0625 -2.734375 C 7.238281 -4.566406 6.328125 -6.394531 6.328125 -8.21875 C 6.328125 -10.039062 6.46875 -11.375 6.75 -12.21875 L 100.734375 -281.140625 C 103.265625 -290.410156 109.585938 -295.046875 119.703125 -295.046875 Z M 141.625 -120.546875 L 189.25 -120.546875 L 165.234375 -198.953125 Z M 141.625 -120.546875 "/></g></g></g></svg>